<svg width="134" height="172" viewBox="0 0 134 172" fill="none" xmlns="http://www.w3.org/2000/svg">
<path d="M-34.1643 162.582C-12.2148 164.382 10.9882 160.101 32.9371 150.201C55.2991 140.114 75.8513 124.37 92.3658 104.667C108.879 84.9642 120.793 61.9801 126.817 38.1983C132.728 14.8578 132.89 -8.73736 127.282 -30.0334C126.063 -34.6653 122.056 -38.0233 117.284 -38.415C95.3346 -40.2149 72.1316 -35.9336 50.1828 -26.0344C42.9068 -22.7532 35.8265 -18.8747 29.0117 -14.454C14.8776 -5.2862 1.89586 6.20659 -9.246 19.4997C-25.7594 39.2025 -37.6727 62.1866 -43.697 85.9684C-49.6083 109.309 -49.7702 132.904 -44.1625 154.2C-42.9435 158.832 -38.9377 162.191 -34.1643 162.582Z" fill="#489B6D"/>
<path d="M123.106 -36.2096C121.446 -37.4468 119.443 -38.2374 117.282 -38.4154C95.3328 -40.2152 72.1298 -35.9339 50.181 -26.0347C42.9051 -22.7535 35.8248 -18.875 29.0099 -14.4544C14.8759 -5.28655 1.89409 6.20625 -9.24776 19.4994C-25.7612 39.2022 -37.6744 62.1862 -43.6988 85.9681C-49.61 109.309 -49.7719 132.904 -44.1643 154.2C-43.5908 156.38 -42.3937 158.271 -40.7967 159.709L123.106 -36.2096Z" fill="#A2CE86"/>
</svg>
