<svg width="109" height="172" viewBox="0 0 109 172" fill="none" xmlns="http://www.w3.org/2000/svg">
<path d="M149.342 159.614C155.045 144.444 156.699 127.16 154.123 109.63C151.498 91.769 144.504 74.0472 133.894 58.3839C123.283 42.7213 109.423 29.6519 93.8086 20.589C78.4842 11.6951 61.8192 6.81854 45.6168 6.48893C42.0929 6.41675 38.9079 8.5747 37.6675 11.8728C31.9639 27.0426 30.3108 44.3269 32.8865 61.8573C33.74 67.6685 35.0558 73.4618 36.8088 79.1767C40.444 91.0292 45.9572 102.536 53.1157 113.103C63.7261 128.766 77.5869 141.835 93.2008 150.898C108.525 159.792 125.19 164.669 141.393 164.998C144.917 165.07 148.102 162.913 149.342 159.614Z" fill="#489B6D"/>
<path d="M40.4033 8.19809C39.1929 9.12253 38.2292 10.3804 37.6671 11.8739C31.9635 27.0437 30.3103 44.3279 32.886 61.8584C33.7396 67.6695 35.0553 73.4628 36.8083 79.1777C40.4436 91.0303 45.9567 102.537 53.1152 113.104C63.7256 128.767 77.5865 141.836 93.2004 150.899C108.525 159.793 125.19 164.67 141.392 164.999C143.051 165.033 144.63 164.568 145.971 163.728L40.4033 8.19809Z" fill="#A2CE86"/>
</svg>
