<svg width="141" height="23" viewBox="0 0 141 23" fill="none" xmlns="http://www.w3.org/2000/svg">
<path d="M0.656 22.5V0.0999985H4.944L14.48 15.908H12.208L21.584 0.0999985H25.84L25.904 22.5H21.04L21.008 7.556H21.904L14.416 20.132H12.08L4.432 7.556H5.52V22.5H0.656ZM41.9265 22.5V19.14L41.6065 18.404V12.388C41.6065 11.3213 41.2758 10.4893 40.6145 9.892C39.9745 9.29467 38.9825 8.996 37.6385 8.996C36.7212 8.996 35.8145 9.14533 34.9185 9.444C34.0438 9.72133 33.2972 10.1053 32.6785 10.596L30.8865 7.108C31.8252 6.44667 32.9558 5.93467 34.2785 5.572C35.6012 5.20933 36.9452 5.028 38.3105 5.028C40.9345 5.028 42.9718 5.64667 44.4225 6.884C45.8732 8.12133 46.5985 10.052 46.5985 12.676V22.5H41.9265ZM36.6785 22.756C35.3345 22.756 34.1825 22.532 33.2225 22.084C32.2625 21.6147 31.5265 20.9853 31.0145 20.196C30.5025 19.4067 30.2465 18.5213 30.2465 17.54C30.2465 16.516 30.4918 15.62 30.9825 14.852C31.4945 14.084 32.2945 13.4867 33.3825 13.06C34.4705 12.612 35.8892 12.388 37.6385 12.388H42.2145V15.3H38.1825C37.0092 15.3 36.1985 15.492 35.7505 15.876C35.3238 16.26 35.1105 16.74 35.1105 17.316C35.1105 17.956 35.3558 18.468 35.8465 18.852C36.3585 19.2147 37.0518 19.396 37.9265 19.396C38.7585 19.396 39.5052 19.204 40.1665 18.82C40.8278 18.4147 41.3078 17.828 41.6065 17.06L42.3745 19.364C42.0118 20.4733 41.3505 21.316 40.3905 21.892C39.4305 22.468 38.1932 22.756 36.6785 22.756ZM60.0615 22.756C58.2055 22.756 56.5522 22.3827 55.1015 21.636C53.6508 20.868 52.5095 19.812 51.6775 18.468C50.8668 17.124 50.4615 15.5987 50.4615 13.892C50.4615 12.164 50.8668 10.6387 51.6775 9.316C52.5095 7.972 53.6508 6.92667 55.1015 6.18C56.5522 5.412 58.2055 5.028 60.0615 5.028C61.8748 5.028 63.4535 5.412 64.7975 6.18C66.1415 6.92667 67.1335 8.004 67.7735 9.412L63.9015 11.492C63.4535 10.6813 62.8882 10.084 62.2055 9.7C61.5442 9.316 60.8188 9.124 60.0295 9.124C59.1762 9.124 58.4082 9.316 57.7255 9.7C57.0428 10.084 56.4988 10.628 56.0935 11.332C55.7095 12.036 55.5175 12.8893 55.5175 13.892C55.5175 14.8947 55.7095 15.748 56.0935 16.452C56.4988 17.156 57.0428 17.7 57.7255 18.084C58.4082 18.468 59.1762 18.66 60.0295 18.66C60.8188 18.66 61.5442 18.4787 62.2055 18.116C62.8882 17.732 63.4535 17.124 63.9015 16.292L67.7735 18.404C67.1335 19.7907 66.1415 20.868 64.7975 21.636C63.4535 22.3827 61.8748 22.756 60.0615 22.756ZM79.473 22.756C77.5103 22.756 75.7823 22.372 74.289 21.604C72.817 20.836 71.6757 19.7907 70.865 18.468C70.0543 17.124 69.649 15.5987 69.649 13.892C69.649 12.164 70.0437 10.6387 70.833 9.316C71.6437 7.972 72.7423 6.92667 74.129 6.18C75.5157 5.412 77.0837 5.028 78.833 5.028C80.5183 5.028 82.033 5.39067 83.377 6.116C84.7423 6.82 85.8197 7.844 86.609 9.188C87.3983 10.5107 87.793 12.1 87.793 13.956C87.793 14.148 87.7823 14.372 87.761 14.628C87.7397 14.8627 87.7183 15.0867 87.697 15.3H73.713V12.388H85.073L83.153 13.252C83.153 12.356 82.9717 11.5773 82.609 10.916C82.2463 10.2547 81.745 9.74267 81.105 9.38C80.465 8.996 79.7183 8.804 78.865 8.804C78.0117 8.804 77.2543 8.996 76.593 9.38C75.953 9.74267 75.4517 10.2653 75.089 10.948C74.7263 11.6093 74.545 12.3987 74.545 13.316V14.084C74.545 15.0227 74.7477 15.8547 75.153 16.58C75.5797 17.284 76.1663 17.828 76.913 18.212C77.681 18.5747 78.577 18.756 79.601 18.756C80.5183 18.756 81.3183 18.6173 82.001 18.34C82.705 18.0627 83.345 17.6467 83.921 17.092L86.577 19.972C85.7877 20.868 84.7957 21.5613 83.601 22.052C82.4063 22.5213 81.0303 22.756 79.473 22.756ZM98.6565 22.756C96.6298 22.756 95.0512 22.244 93.9205 21.22C92.7898 20.1747 92.2245 18.628 92.2245 16.58V1.476H97.2165V16.516C97.2165 17.2413 97.4085 17.8067 97.7925 18.212C98.1765 18.596 98.6992 18.788 99.3605 18.788C100.15 18.788 100.822 18.5747 101.377 18.148L102.721 21.668C102.209 22.0307 101.59 22.308 100.865 22.5C100.161 22.6707 99.4245 22.756 98.6565 22.756ZM89.5685 9.508V5.668H101.505V9.508H89.5685ZM116.583 22.5V19.14L116.263 18.404V12.388C116.263 11.3213 115.932 10.4893 115.271 9.892C114.631 9.29467 113.639 8.996 112.295 8.996C111.377 8.996 110.471 9.14533 109.575 9.444C108.7 9.72133 107.953 10.1053 107.335 10.596L105.543 7.108C106.481 6.44667 107.612 5.93467 108.935 5.572C110.257 5.20933 111.601 5.028 112.967 5.028C115.591 5.028 117.628 5.64667 119.079 6.884C120.529 8.12133 121.255 10.052 121.255 12.676V22.5H116.583ZM111.335 22.756C109.991 22.756 108.839 22.532 107.879 22.084C106.919 21.6147 106.183 20.9853 105.671 20.196C105.159 19.4067 104.903 18.5213 104.903 17.54C104.903 16.516 105.148 15.62 105.639 14.852C106.151 14.084 106.951 13.4867 108.039 13.06C109.127 12.612 110.545 12.388 112.295 12.388H116.871V15.3H112.839C111.665 15.3 110.855 15.492 110.407 15.876C109.98 16.26 109.767 16.74 109.767 17.316C109.767 17.956 110.012 18.468 110.503 18.852C111.015 19.2147 111.708 19.396 112.583 19.396C113.415 19.396 114.161 19.204 114.823 18.82C115.484 18.4147 115.964 17.828 116.263 17.06L117.031 19.364C116.668 20.4733 116.007 21.316 115.047 21.892C114.087 22.468 112.849 22.756 111.335 22.756ZM132.065 22.756C130.593 22.756 129.174 22.5853 127.809 22.244C126.465 21.8813 125.398 21.4333 124.609 20.9L126.273 17.316C127.062 17.8067 127.99 18.212 129.057 18.532C130.145 18.8307 131.211 18.98 132.257 18.98C133.409 18.98 134.219 18.8413 134.689 18.564C135.179 18.2867 135.425 17.9027 135.425 17.412C135.425 17.0067 135.233 16.708 134.849 16.516C134.486 16.3027 133.995 16.1427 133.377 16.036C132.758 15.9293 132.075 15.8227 131.329 15.716C130.603 15.6093 129.867 15.4707 129.121 15.3C128.374 15.108 127.691 14.8307 127.073 14.468C126.454 14.1053 125.953 13.6147 125.569 12.996C125.206 12.3773 125.025 11.5773 125.025 10.596C125.025 9.508 125.334 8.548 125.953 7.716C126.593 6.884 127.51 6.23333 128.705 5.764C129.899 5.27333 131.329 5.028 132.993 5.028C134.166 5.028 135.361 5.156 136.577 5.412C137.793 5.668 138.806 6.04133 139.617 6.532L137.953 10.084C137.121 9.59333 136.278 9.26267 135.425 9.092C134.593 8.9 133.782 8.804 132.993 8.804C131.883 8.804 131.073 8.95333 130.561 9.252C130.049 9.55067 129.793 9.93467 129.793 10.404C129.793 10.8307 129.974 11.1507 130.337 11.364C130.721 11.5773 131.222 11.748 131.841 11.876C132.459 12.004 133.131 12.1213 133.857 12.228C134.603 12.3133 135.35 12.452 136.097 12.644C136.843 12.836 137.515 13.1133 138.113 13.476C138.731 13.8173 139.233 14.2973 139.617 14.916C140.001 15.5133 140.193 16.3027 140.193 17.284C140.193 18.3507 139.873 19.3 139.233 20.132C138.593 20.9427 137.665 21.5827 136.449 22.052C135.254 22.5213 133.793 22.756 132.065 22.756Z" fill="white"/>
</svg>
