<svg width="32" height="32" viewBox="0 0 32 32" fill="none" xmlns="http://www.w3.org/2000/svg">
<path d="M6.80583 6.66667H14.8058C15.5392 6.66667 16.1392 6.06667 16.1392 5.33333C16.1392 4.6 15.5392 4 14.8058 4H6.80583C5.33916 4 4.13916 5.2 4.13916 6.66667V25.3333C4.13916 26.8 5.33916 28 6.80583 28H14.8058C15.5392 28 16.1392 27.4 16.1392 26.6667C16.1392 25.9333 15.5392 25.3333 14.8058 25.3333H6.80583V6.66667Z" fill="white"/>
<path d="M27.6725 15.5333L23.9525 11.8133C23.5258 11.3867 22.8058 11.68 22.8058 12.28V14.6667H13.4725C12.7392 14.6667 12.1392 15.2667 12.1392 16C12.1392 16.7333 12.7392 17.3333 13.4725 17.3333H22.8058V19.72C22.8058 20.32 23.5258 20.6133 23.9392 20.1867L27.6592 16.4667C27.9258 16.2133 27.9258 15.7867 27.6725 15.5333Z" fill="white"/>
</svg>
