<svg width="25" height="24" viewBox="0 0 25 24" fill="none" xmlns="http://www.w3.org/2000/svg">
<path d="M16.14 10.5759C16.69 9.10595 17.57 7.79595 18.7 6.74595C19.08 6.38595 18.74 5.74595 18.24 5.89595C14.92 6.87595 12.49 9.94595 12.5 13.5859C13.45 12.3059 14.7 11.2759 16.14 10.5759ZM11.92 8.40595C11.32 6.84595 10.29 5.49595 8.96 4.53595C8.54 4.23595 8 4.72595 8.24 5.18595C9.04 6.70595 9.5 8.43595 9.5 10.2659C9.5 10.4759 9.47 10.6759 9.46 10.8759C9.89 11.1159 10.29 11.3959 10.68 11.6959C10.89 10.5159 11.33 9.40595 11.92 8.40595ZM12.5 19.5559H3.5C2.95 19.5559 2.5 19.1059 2.5 18.5559C2.5 18.0059 2.95 17.5559 3.5 17.5559H8.25C7.68 15.3659 6.21 13.5359 4.25 12.4959C4.09 12.4159 3.99 12.2459 3.99 12.0559C3.99 11.7859 4.21 11.5659 4.48 11.5559C4.49 11.5559 4.5 11.5559 4.5 11.5559C8.92 11.5559 12.5 15.1359 12.5 19.5559ZM20.76 12.4959C18.8 13.5359 17.32 15.3659 16.76 17.5559H21.5C22.05 17.5559 22.5 18.0059 22.5 18.5559C22.5 19.1059 22.05 19.5559 21.5 19.5559H14.5C14.5 18.8759 14.43 18.2059 14.3 17.5559C14.15 16.8359 13.92 16.1359 13.63 15.4859C15.02 13.1359 17.57 11.5559 20.5 11.5559C20.51 11.5559 20.52 11.5559 20.52 11.5559C20.79 11.5559 21.01 11.7859 21.01 12.0559C21.02 12.2459 20.91 12.4059 20.76 12.4959Z" fill="white"/>
</svg>
