<svg width="48" height="48" viewBox="0 0 48 48" fill="none" xmlns="http://www.w3.org/2000/svg">
<path d="M24.0001 10.6667C16.6401 10.6667 10.6667 16.6401 10.6667 24.0001C10.6667 31.3601 16.6401 37.3334 24.0001 37.3334C31.3601 37.3334 37.3334 31.3601 37.3334 24.0001C37.3334 16.6401 31.3601 10.6667 24.0001 10.6667ZM24.0001 16.0001C26.5734 16.0001 28.6667 18.0934 28.6667 20.6667C28.6667 23.2401 26.5734 25.3334 24.0001 25.3334C21.4267 25.3334 19.3334 23.2401 19.3334 20.6667C19.3334 18.0934 21.4267 16.0001 24.0001 16.0001ZM24.0001 34.6667C21.2934 34.6667 18.0934 33.5734 15.8134 30.8267C18.0667 29.0667 20.9067 28.0001 24.0001 28.0001C27.0934 28.0001 29.9334 29.0667 32.1867 30.8267C29.9067 33.5734 26.7067 34.6667 24.0001 34.6667Z" fill="white"/>
</svg>
