<svg width="25" height="24" viewBox="0 0 25 24" fill="none" xmlns="http://www.w3.org/2000/svg">
<path d="M19.5 3H5.5C4.4 3 3.5 3.9 3.5 5V19C3.5 20.1 4.4 21 5.5 21H19.5C20.6 21 21.5 20.1 21.5 19V5C21.5 3.9 20.6 3 19.5 3ZM8.5 17C7.95 17 7.5 16.55 7.5 16V13C7.5 12.45 7.95 12 8.5 12C9.05 12 9.5 12.45 9.5 13V16C9.5 16.55 9.05 17 8.5 17ZM12.5 17C11.95 17 11.5 16.55 11.5 16V15C11.5 14.45 11.95 14 12.5 14C13.05 14 13.5 14.45 13.5 15V16C13.5 16.55 13.05 17 12.5 17ZM12.5 12C11.95 12 11.5 11.55 11.5 11C11.5 10.45 11.95 10 12.5 10C13.05 10 13.5 10.45 13.5 11C13.5 11.55 13.05 12 12.5 12ZM16.5 17C15.95 17 15.5 16.55 15.5 16V8C15.5 7.45 15.95 7 16.5 7C17.05 7 17.5 7.45 17.5 8V16C17.5 16.55 17.05 17 16.5 17Z" fill="white"/>
</svg>
